<svg xmlns="http://www.w3.org/2000/svg" width="320" height="80" viewBox="0 0 320 80" role="img"><title>Seniorly</title><g transform="translate(0,0) scale(1)"><rect width="80" height="80" rx="20" fill="#4F46E5"/><rect x="16" y="48" width="14" height="16" rx="3" fill="#FFFFFF"/><rect x="33" y="38" width="14" height="26" rx="3" fill="#FFFFFF"/><rect x="50" y="28" width="14" height="36" rx="3" fill="#FFFFFF"/><circle cx="57" cy="17" r="6" fill="#FBBF24"/></g><path d="M103.248 51.248H110.08Q110.304 53.768 112.068 55.391999999999996Q113.832 57.016 117.024 57.016Q120.328 57.016 122.176 55.42Q124.024 53.824 124.024 51.304Q124.024 49.344 122.876 48.111999999999995Q121.72800000000001 46.879999999999995 120.02000000000001 46.208Q118.312 45.536 115.288 44.751999999999995Q111.48 43.744 109.1 42.708Q106.72 41.672 105.03999999999999 39.488Q103.36 37.304 103.36 33.664Q103.36 30.304 105.03999999999999 27.784Q106.72 25.263999999999996 109.744 23.919999999999998Q112.768 22.576 116.744 22.576Q122.4 22.576 126.012 25.404Q129.624 28.232 130.016 33.16H122.96000000000001Q122.792 31.032 120.944 29.520000000000003Q119.096 28.008000000000003 116.072 28.008000000000003Q113.328 28.008000000000003 111.592 29.408Q109.856 30.808 109.856 33.44Q109.856 35.232 110.94800000000001 36.379999999999995Q112.04 37.528 113.72 38.2Q115.4 38.872 118.312 39.656Q122.176 40.72 124.612 41.784Q127.048 42.848 128.756 45.06Q130.464 47.272 130.464 50.968Q130.464 53.936 128.868 56.568Q127.272 59.2 124.22 60.79600000000001Q121.168 62.392 117.024 62.392Q113.104 62.392 109.96799999999999 61.02Q106.832 59.648 105.03999999999999 57.128Q103.248 54.608 103.248 51.248Z M165.08 48.952H141.50400000000002Q141.78400000000002 52.647999999999996 144.24800000000002 54.888Q146.71200000000002 57.128 150.29600000000002 57.128Q155.448 57.128 157.57600000000002 52.816H164.464Q163.06400000000002 57.072 159.39600000000002 59.788Q155.728 62.504 150.29600000000002 62.504Q145.872 62.504 142.372 60.516Q138.872 58.528 136.88400000000001 54.916Q134.89600000000002 51.304 134.89600000000002 46.544Q134.89600000000002 41.784 136.82800000000003 38.172Q138.76000000000002 34.56 142.26000000000002 32.6Q145.76000000000002 30.64 150.29600000000002 30.64Q154.66400000000002 30.64 158.08 32.544Q161.496 34.448 163.40000000000003 37.891999999999996Q165.30400000000003 41.336 165.30400000000003 45.816Q165.30400000000003 47.552 165.08 48.952ZM158.64000000000001 43.8Q158.584 40.272 156.12 38.144Q153.656 36.016 150.01600000000002 36.016Q146.71200000000002 36.016 144.36 38.116Q142.008 40.216 141.56 43.8Z M198.8 43.8V62.0H192.472V44.751999999999995Q192.472 40.608000000000004 190.4 38.396Q188.328 36.184 184.744 36.184Q181.16 36.184 179.06 38.396Q176.96 40.608000000000004 176.96 44.751999999999995V62.0H170.576V31.144H176.96V34.672Q178.52800000000002 32.768 180.964 31.704Q183.4 30.64 186.144 30.64Q189.784 30.64 192.668 32.152Q195.55200000000002 33.664 197.17600000000002 36.632Q198.8 39.599999999999994 198.8 43.8Z M205.08 22.967999999999996Q205.08 21.232 206.256 20.056Q207.432 18.880000000000003 209.168 18.880000000000003Q210.848 18.880000000000003 212.024 20.056Q213.2 21.232 213.2 22.967999999999996Q213.2 24.704 212.024 25.88Q210.848 27.055999999999997 209.168 27.055999999999997Q207.432 27.055999999999997 206.256 25.88Q205.08 24.704 205.08 22.967999999999996ZM212.304 31.144V62.0H205.92V31.144Z M217.632 46.544Q217.632 41.84 219.704 38.2Q221.77599999999998 34.56 225.35999999999999 32.6Q228.944 30.64 233.368 30.64Q237.792 30.64 241.37599999999998 32.6Q244.95999999999998 34.56 247.03199999999998 38.2Q249.10399999999998 41.84 249.10399999999998 46.544Q249.10399999999998 51.248 246.976 54.888Q244.84799999999998 58.528 241.18 60.516Q237.512 62.504 233.088 62.504Q228.72 62.504 225.192 60.516Q221.664 58.528 219.648 54.916Q217.632 51.304 217.632 46.544ZM242.552 46.544Q242.552 43.184 241.264 40.86Q239.976 38.536 237.848 37.36Q235.72 36.184 233.256 36.184Q230.792 36.184 228.692 37.36Q226.59199999999998 38.536 225.35999999999999 40.86Q224.128 43.184 224.128 46.544Q224.128 51.528 226.676 54.244Q229.224 56.96 233.088 56.96Q235.552 56.96 237.70799999999997 55.784Q239.86399999999998 54.608 241.20799999999997 52.256Q242.552 49.903999999999996 242.552 46.544Z M270.056 30.64V37.248000000000005H268.432Q264.68 37.248000000000005 262.748 39.152Q260.816 41.056 260.816 45.76V62.0H254.432V31.144H260.816V35.623999999999995Q262.216 33.272 264.53999999999996 31.956Q266.864 30.64 270.056 30.64Z" fill="#0F172A"/><path d="M281.32 20.560000000000002V62.0H274.936V20.560000000000002Z M316.496 31.144 297.568 76.504H290.96L297.23199999999997 61.496L285.08 31.144H292.192L300.87199999999996 54.664L309.888 31.144Z" fill="#6366F1"/></svg>